<svg height="50px" viewBox="0 0 50 60" width="60px" xmlns="http://www.w3.org/2000/svg"><g id="Page-1" fill="none" fill-rule="evenodd"><g id="014---Hamster" fill="rgb(0,0,0)" fill-rule="nonzero"><circle id="Oval" cx="18" cy="22" r="2"/><circle id="Oval" cx="38" cy="22" r="2"/><path id="Shape" d="m33.628 43.54c-.9524049-2.2163516-1.4876987-4.5894081-1.579-7-1.4810093-.3768589-2.8625112-1.0708512-4.049-2.034-1.186217.9642213-2.5677383 1.659247-4.049 2.037-.0913013 2.4105919-.6265951 4.7836484-1.579 7 1.7538966.8727486 3.6709342 1.3690393 5.628 1.457 1.957283-.0888964 3.8743314-.5862118 5.628-1.46z"/><path id="Shape" d="m13 46c2.6392684-.1285214 5.1738533-1.0717852 7.255-2.7 1.2576529-2.5802859 1.8571427-5.431727 1.745-8.3.0168167-1.2458738-.2571019-2.4785072-.8-3.6-.231211-.4919013-.0271837-1.0784093.4593989-1.3206132.4865827-.242204 1.0775264-.0514051 1.3306011.4296132.5958673 1.2268284.9302709 2.5641025.982 3.927 1.1432358-.3138097 2.1861771-.9172553 3.028-1.752v-2.72c-1.0271619-.0681421-1.9921674-.516244-2.707-1.257-.3789722-.3923789-.3735524-1.0160848.0121814-1.4018186s1.0094397-.3911536 1.4018186-.0121814c.6148666.5758742 1.4606025.8366397 2.293.707.8323975.1296397 1.6781334-.1311258 2.293-.707.3923789-.3789722 1.0160848-.3735524 1.4018186.0121814s.3911536 1.0094397.0121814 1.4018186c-.7148326.740756-1.6798381 1.1888579-2.707 1.257v2.719c.8391364.8405623 1.8838013 1.4466748 3.03 1.758.0511349-1.3649013.3855476-2.7042548.982-3.933.2530747-.4810183.8440184-.6718172 1.3306011-.4296132.4865826.2422039.6906099.8287119.4593989 1.3206132-.5437406 1.1216288-.8183497 2.3546302-.802 3.601-.1121427 2.868273.4873471 5.7197141 1.745 8.3 2.0811467 1.6282148 4.6157316 2.5714786 7.255 2.7 7.1762751-.008266 12.991734-5.8237249 13-13-.1803982-5.0150517-1.6507168-9.8988927-4.269-14.18-.3252671.4210253-.6961984.8047011-1.106 1.144-.2790244.223291-.655978.2807626-.9888658.1507659-.3328879-.1299968-.5711366-.4277123-.625-.781-.0538635-.3532878.0848414-.7084749.3638658-.9317659 3.076-2.461 4.2-10.135 3.121-15.095-.463-2.12-1.2-3.019-1.739-3.154-2.111-.528-3.091.385-4.577 1.766-.810221.80023095-1.7036251 1.5116019-2.665 2.122-4.358 2.614-4.515 5.138-4.515 5.159-.0211161.546335-.4743157.9760091-1.021.968-.5402934-.0065332-.9757681-.44467681-.979-.985.0871026-1.09446872.4865942-2.14092133 1.151-3.015-6.4580634-2.89013157-13.8419366-2.89013157-20.3 0 .6636901.874305 1.0624802 1.92073854 1.149 3.015.003394.35726559-.1840687.6892033-.4917728.8707754-.307704.1815721-.6889019.1851935-1 .0095-.311098-.17569348-.5048332-.50400981-.5082272-.8612754 0-.087-.212-2.58-4.515-5.161-.9613749-.6103981-1.854779-1.32176905-2.665-2.122-1.486-1.381-2.47-2.294-4.577-1.766-.537.135-1.276 1.034-1.739 3.154-1.082 4.96.045 12.634 3.121 15.1.27902443.223291.4177293.5784781.36386584.9317659-.05386346.3532877-.29211211.6510032-.625.781-.33288789.1299967-.70984141.0725251-.98886584-.1507659-.41007772-.3408621-.78101936-.7262255-1.106-1.149-2.61828325 4.2811073-4.0886018 9.1649483-4.269 14.18.00826602 7.1762751 5.82372494 12.991734 13 13zm36.447-5.1c-.2373497.1186659-.5121326.1381283-.7638386.0541012-.251706-.084027-.4596935-.2646527-.5781614-.5021012-2.664-5.334-6.931-5.452-7.111-5.452-.3572656-.0010718-.6868208-.1926611-.8645254-.5025981s-.176561-.6911348.003-1 .5102598-.4984737.8675254-.4974019c.229 0 5.655.075 8.9 6.553.1199018.23847.139492.5149779.0544098.7679708s-.2677751.4614723-.5074098.5790292zm4.153-8.7c.2858125.2143593.4355548.5649147.3928204.9196153-.0427344.3547005-.2714532.6596588-.6000001.8-.3285468.1403412-.7070078.0947441-.9928203-.1196153-3.691-2.768-10.333-2.8-10.4-2.8-.5522847 0-1-.4477153-1-1s.4477153-1 1-1c.3 0 7.382.036 11.6 3.2zm-11.549-21.516c.8897234-2.23113047 2.4182626-4.14997932 4.394-5.516.4591257-.30325786 1.0769896-.17862366 1.382651.27890547.3056613.45752912.1842689 1.07603806-.271651 1.38409453-1.6040847 1.12187961-2.8552714 2.67762466-3.607 4.485-.174522.5246705-.7413295.808522-1.266.634s-.808522-.7413295-.634-1.266zm-3.051 3.316c1.8013451.1458757 3.4817714.96449 4.707 2.293.2599566.2510745.3642126.6228779.2726972.9725073-.0915155.3496295-.3645604.6226744-.7141899.7141899-.3496294.0915154-.7214328-.0127406-.9725073-.2726972-.8562764-.9529297-2.0313332-1.5600187-3.304-1.707-.5499441-.0093162-.9891292-.4610111-.983-1.011.0059929-.5456548.4483219-.9857588.994-.989zm-1 4c2.209139 0 4 1.790861 4 4s-1.790861 4-4 4-4-1.790861-4-4 1.790861-4 4-4zm-22.995 17c-.2 0-4.452.13-7.11 5.447-.15969771.3197527-.47785053.5300187-.83461336.5515928s-.69793492-.1488214-.89500002-.447c-.19706511-.2981787-.22008436-.6788401-.06038662-.9985928 3.24-6.478 8.666-6.553 8.895-6.553.5522847 0 1 .4477153 1 1s-.4477153 1-1 1zm7-13c0 2.209139-1.790861 4-4 4s-4-1.790861-4-4 1.790861-4 4-4c2.2071861.002759 3.9950017 1.7928121 3.995 4zm-5-8c.5522847-.0027614 1.0022386.4427153 1.005.995s-.4427153 1.0022386-.995 1.005c-1.2709945.1487239-2.4442099.7555962-3.3 1.707-.3923789.3789722-1.0160848.3735524-1.4018186-.0121814s-.3911536-1.0094397-.0121814-1.4018186c1.2232451-1.3267146 2.9004877-2.145169 4.699-2.293zm-8.831-8.556c.30675264-.45859755.92696916-.58210387 1.386-.276 1.9757374 1.36602068 3.5042766 3.28486953 4.394 5.516.1128959.3394023.0361471.7132522-.201336.9807241-.237483.2674719-.599621.3879304-.95.316s-.6357681-.3253218-.748664-.6647241c-.7517286-1.80737534-2.0029153-3.36312039-3.607-4.485-.22084926-.14701628-.37422473-.37576893-.42636405-.63590288-.05213933-.26013395.00123151-.53032529.14836405-.75109712zm-5.174 28.556c-.43043041 0-.81256925-.2754301-.9486833-.6837722-.13611404-.4083422.00433897-.8579696.3486833-1.1162278 4.218-3.164 11.3-3.2 11.6-3.2.5522847 0 1 .4477153 1 1s-.4477153 1-1 1c-.066 0-6.719.04-10.4 2.8-.17309617.1298221-.38362979.2-.6.2z"/></g></g></svg>